<svg version="1.1" id="Calque_1" xmlns="http://www.w3.org/2000/svg" xmlns:xlink="http://www.w3.org/1999/xlink" x="0px" y="0px"
	 width="358.476px" height="75.498px" viewBox="0 0 358.476 75.498" enable-background="new 0 0 358.476 75.498"
	 xml:space="preserve">
<g>
	<g>
		<path fill="#FFFFFF" d="M0,0.417h15.617c13.273,0,22.049,5.351,22.049,20.806c0,6.166-1.926,14.419-8.127,17.914l8.245,34.609
			H23.757l-6.54-31.515h-3.303v31.515H0V0.417z M13.914,31.518h2.767c5.14,0,7.076-4.943,7.076-10.197
			c0-7.941-2.997-10.2-7.699-10.2h-2.144V31.518z"/>
		<path fill="#FFFFFF" d="M71.66,73.746H59.703v-4.939h-0.211c-2.762,2.881-7.09,5.763-11.107,5.763
			c-5.464,0-8.859-4.22-8.859-10.718v-41.81h11.947v37.496c0,3.899,1.342,5.144,3.396,5.144c1.646,0,4.027-0.927,4.834-1.961V22.042
			H71.66V73.746z"/>
		<path fill="#FFFFFF" d="M87.22,51.607v2.259c0,8.962,2.229,10.815,4.78,10.815c4.465,0,5.306-3.606,6.488-7.113l8.592,2.483
			c-1.799,9.673-7.539,14.518-15.93,14.518c-9.67,0-17.102-7.103-17.102-26.678c0-19.566,7.432-26.668,17.102-26.668
			c12.439,0.098,15.73,14.826,15.73,25.125v5.26H87.22z M95.18,42.332v-1.443c0-7.518-1.164-10.399-4.134-10.399
			c-2.771,0-3.826,2.478-3.826,10.399v1.443H95.18z"/>
		<linearGradient id="SVGID_1_" gradientUnits="userSpaceOnUse" x1="131.7886" y1="74.9741" x2="131.7886" y2="4.882812e-04">
			<stop  offset="0" style="stop-color:#77CD98"/>
			<stop  offset="1" style="stop-color:#21C4A6"/>
		</linearGradient>
		<path fill="url(#SVGID_1_)" d="M124.421,38.416c-5.272-4.423-9.076-11.732-9.076-18.647C115.345,9.271,120.93,0,132.638,0
			c9.462,0,15.261,8.137,15.261,16.688c0,7.727-2.945,12.571-9.266,17.101c6.111,6.181,11.487,12.356,11.487,21.515
			c0,9.068-5.376,19.67-18.869,19.67c-11.369,0-17.794-7.92-17.794-18.531C113.457,48.507,118.096,42.847,124.421,38.416z
			 M131.369,65.712c2.943,0,6.541-2.168,6.541-8.447c0-6.18-4.24-9.887-8.666-14.112c-2.197,2.785-4.197,8.557-4.197,13.29
			C125.047,64.156,128.311,65.712,131.369,65.712z M133.479,28.834c2.418-3.394,4.303-7.514,4.303-11.635
			c0-3.395-1.256-7.306-5.676-7.306c-3.26,0-5.15,3.286-5.15,5.962C126.955,20.595,129.783,26.262,133.479,28.834z"/>
		<linearGradient id="SVGID_2_" gradientUnits="userSpaceOnUse" x1="169.2817" y1="74.9741" x2="169.2817" y2="4.882812e-04">
			<stop  offset="0" style="stop-color:#77CD98"/>
			<stop  offset="1" style="stop-color:#21C4A6"/>
		</linearGradient>
		<path fill="url(#SVGID_2_)" d="M163.732,55.005c0.547,6.588,0.979,10.085,4.063,10.085c4.979,0,5.212-9.06,6.057-23.793h-0.198
			c-2.248,3.304-5.127,5.154-9.489,5.154c-6.166,0-12.984-5.358-12.984-20.701c0-16.586,7.665-25.75,17.782-25.75
			c9.592,0,18.42,5.565,18.42,34.505c0,29.767-8.413,40.469-19.809,40.469c-11.066,0-15.021-9.781-15.562-19.043L163.732,55.005z
			 M173.547,24.415c-0.111-8.652-0.963-14.522-4.584-14.522c-3.406,0-4.588,3.089-4.588,14.309c0,10.202,2.354,12.356,4.909,12.356
			c2.241,0,3.724-1.228,4.263-1.945V24.415z"/>
	</g>
	<g>
		<g>
			<path fill="#F0EFF3" d="M208.942,74.568v-59.27h6.439l11.434,51.176c1.4-6.703,3.26-14.906,5.58-24.606
				c2.318-9.7,4.27-18.557,5.854-26.57h6.439v59.27h-4.648V27.145l-10.951,47.423h-4.547l-10.951-47.389v47.389H208.942z"/>
			<path fill="#F0EFF3" d="M253.644,57.382V32.552c0-2.089,0.154-4.006,0.465-5.751c0.311-1.744,0.832-3.392,1.566-4.942
				s1.664-2.858,2.789-3.926c1.125-1.067,2.561-1.911,4.307-2.531c1.744-0.62,3.74-0.93,5.992-0.93c2.25,0,4.246,0.31,5.992,0.93
				c1.744,0.62,3.18,1.464,4.305,2.531c1.125,1.068,2.055,2.376,2.789,3.926s1.258,3.198,1.566,4.942
				c0.311,1.745,0.465,3.662,0.465,5.751v24.831c0,12.076-5.039,18.115-15.117,18.115C258.683,75.498,253.644,69.458,253.644,57.382
				z M278.646,58.553V31.381c0-8.472-3.295-12.708-9.883-12.708c-6.59,0-9.885,4.236-9.885,12.708v27.172
				c0,8.495,3.295,12.742,9.885,12.742C275.351,71.295,278.646,67.048,278.646,58.553z"/>
			<path fill="#F0EFF3" d="M291.733,57.382V32.552c0-2.089,0.154-4.006,0.465-5.751c0.311-1.744,0.832-3.392,1.566-4.942
				s1.664-2.858,2.789-3.926c1.125-1.067,2.561-1.911,4.307-2.531c1.744-0.62,3.74-0.93,5.992-0.93c2.25,0,4.246,0.31,5.992,0.93
				c1.744,0.62,3.18,1.464,4.305,2.531c1.125,1.068,2.055,2.376,2.789,3.926s1.258,3.198,1.566,4.942
				c0.311,1.745,0.465,3.662,0.465,5.751v24.831c0,12.076-5.039,18.115-15.117,18.115C296.772,75.498,291.733,69.458,291.733,57.382
				z M316.735,58.553V31.381c0-8.472-3.295-12.708-9.883-12.708c-6.59,0-9.885,4.236-9.885,12.708v27.172
				c0,8.495,3.295,12.742,9.885,12.742C313.44,71.295,316.735,67.048,316.735,58.553z"/>
			<path fill="#F0EFF3" d="M329.823,57.382V32.552c0-2.112,0.137-4.029,0.412-5.751c0.277-1.722,0.764-3.363,1.465-4.925
				c0.699-1.561,1.602-2.875,2.703-3.943c1.102-1.067,2.508-1.911,4.219-2.531c1.711-0.62,3.691-0.93,5.941-0.93
				c9.275,0,13.912,6.027,13.912,18.081v2.411h-4.992v-3.582c0-1.906-0.145-3.593-0.432-5.062s-0.764-2.795-1.43-3.978
				c-0.666-1.182-1.59-2.089-2.771-2.721c-1.184-0.631-2.611-0.947-4.287-0.947c-1.516,0-2.836,0.212-3.961,0.637
				s-2.037,1.004-2.738,1.739s-1.262,1.653-1.688,2.755s-0.717,2.256-0.877,3.461c-0.162,1.206-0.242,2.578-0.242,4.116v27.172
				c0,1.952,0.139,3.646,0.414,5.08s0.752,2.755,1.428,3.96c0.678,1.205,1.66,2.124,2.945,2.756
				c1.285,0.631,2.859,0.946,4.719,0.946c1.676,0,3.104-0.315,4.287-0.946c1.182-0.632,2.105-1.545,2.771-2.738
				s1.143-2.525,1.43-3.995c0.287-1.469,0.432-3.156,0.432-5.062V54.49h4.992v2.893c0,2.09-0.125,3.995-0.379,5.717
				c-0.252,1.722-0.705,3.369-1.359,4.942c-0.654,1.572-1.498,2.893-2.531,3.96c-1.033,1.068-2.365,1.918-3.994,2.549
				c-1.631,0.631-3.514,0.947-5.648,0.947c-2.297,0-4.311-0.316-6.045-0.947s-3.145-1.48-4.236-2.549
				c-1.09-1.067-1.975-2.388-2.65-3.96c-0.678-1.573-1.148-3.214-1.412-4.925C329.954,61.406,329.823,59.495,329.823,57.382z"/>
		</g>
	</g>
</g>
</svg>
