<svg version="1.1" id="Calque_1" xmlns="http://www.w3.org/2000/svg" xmlns:xlink="http://www.w3.org/1999/xlink" x="0px" y="0px"
	 width="176.716px" height="170.674px" viewBox="0 0 176.716 170.674" enable-background="new 0 0 176.716 170.674"
	 xml:space="preserve">
<g>
	<path fill="#FFFFFF" d="M4.397,0.374h14.085c11.97,0,19.882,4.806,19.882,18.68c0,5.537-1.734,12.947-7.328,16.086l7.436,31.075
		H25.823l-5.9-28.298h-2.977v28.298H4.397V0.374z M16.946,28.301h2.496c4.633,0,6.381-4.438,6.381-9.16
		c0-7.129-2.703-9.155-6.945-9.155h-1.932V28.301z"/>
	<path fill="#FFFFFF" d="M69.024,66.216H58.24V61.78h-0.188c-2.492,2.586-6.396,5.172-10.02,5.172c-4.926,0-7.99-3.787-7.99-9.62
		V19.789h10.771v33.668c0,3.502,1.213,4.619,3.068,4.619c1.482,0,3.629-0.831,4.358-1.761V19.789h10.784V66.216z"/>
	<path fill="#FFFFFF" d="M83.054,46.336v2.027c0,8.051,2.014,9.712,4.314,9.712c4.025,0,4.787-3.238,5.85-6.389l7.752,2.231
		c-1.63,8.685-6.799,13.033-14.371,13.033c-8.719,0-15.421-6.376-15.421-23.951c0-17.568,6.702-23.946,15.421-23.946
		c11.221,0.087,14.186,13.313,14.186,22.562v4.721H83.054z M90.234,38.009v-1.296c0-6.753-1.05-9.337-3.73-9.337
		c-2.493,0-3.45,2.224-3.45,9.337v1.296H90.234z"/>
	<linearGradient id="SVGID_1_" gradientUnits="userSpaceOnUse" x1="123.2515" y1="67.3169" x2="123.2515" y2="0">
		<stop  offset="0" style="stop-color:#77CD98"/>
		<stop  offset="1" style="stop-color:#21C4A6"/>
	</linearGradient>
	<path fill="url(#SVGID_1_)" d="M116.605,34.493c-4.752-3.97-8.186-10.534-8.186-16.742c0-9.427,5.039-17.75,15.598-17.75
		c8.535,0,13.762,7.306,13.762,14.984c0,6.936-2.658,11.287-8.357,15.354c5.514,5.551,10.363,11.096,10.363,19.32
		c0,8.142-4.85,17.66-17.018,17.66c-10.254,0-16.049-7.112-16.049-16.639C106.718,43.552,110.896,38.472,116.605,34.493z
		 M122.873,59c2.652,0,5.898-1.946,5.898-7.584c0-5.549-3.824-8.874-7.812-12.668c-1.984,2.5-3.785,7.678-3.785,11.93
		C117.173,57.605,120.113,59,122.873,59z M124.775,25.89c2.18-3.048,3.879-6.749,3.879-10.447c0-3.049-1.131-6.56-5.119-6.56
		c-2.939,0-4.646,2.949-4.646,5.352C118.888,18.492,121.439,23.581,124.775,25.89z"/>
	<linearGradient id="SVGID_2_" gradientUnits="userSpaceOnUse" x1="157.062" y1="67.3169" x2="157.062" y2="0">
		<stop  offset="0" style="stop-color:#77CD98"/>
		<stop  offset="1" style="stop-color:#21C4A6"/>
	</linearGradient>
	<path fill="url(#SVGID_2_)" d="M152.06,49.385c0.49,5.918,0.879,9.058,3.664,9.058c4.49,0,4.699-8.135,5.461-21.362h-0.178
		c-2.029,2.967-4.625,4.626-8.559,4.626c-5.561,0-11.711-4.808-11.711-18.587C140.738,8.226,147.65,0,156.773,0
		c8.652,0,16.613,4.997,16.613,30.979c0,26.728-7.584,36.338-17.863,36.338c-9.982,0-13.545-8.781-14.035-17.1L152.06,49.385z
		 M160.908,21.92c-0.098-7.767-0.867-13.037-4.135-13.037c-3.072,0-4.133,2.772-4.133,12.848c0,9.159,2.117,11.093,4.424,11.093
		c2.025,0,3.359-1.104,3.844-1.747V21.92z"/>
</g>
<g>
	<g>
		<path fill="#F0EFF3" d="M5.641,146.633V80.435h7.225l12.827,57.159c1.57-7.487,3.657-16.648,6.259-27.483
			c2.602-10.834,4.791-20.726,6.568-29.676h7.225v66.198h-5.216V93.667l-12.286,52.967h-5.1L10.856,93.706v52.928H5.641z"/>
		<path fill="#F0EFF3" d="M55.789,127.44V99.706c0-2.333,0.174-4.475,0.521-6.423c0.348-1.949,0.934-3.789,1.758-5.521
			c0.824-1.73,1.867-3.192,3.13-4.385c1.262-1.192,2.871-2.135,4.829-2.827c1.957-0.692,4.198-1.039,6.723-1.039
			c2.523,0,4.765,0.346,6.723,1.039c1.957,0.692,3.566,1.635,4.829,2.827c1.262,1.192,2.305,2.654,3.13,4.385
			c0.823,1.731,1.41,3.571,1.758,5.521c0.348,1.948,0.521,4.09,0.521,6.423v27.734c0,13.488-5.654,20.232-16.961,20.232
			C61.442,147.672,55.789,140.928,55.789,127.44z M83.838,128.748v-30.35c0-9.462-3.696-14.193-11.088-14.193
			c-7.393,0-11.088,4.731-11.088,14.193v30.35c0,9.488,3.695,14.232,11.088,14.232C80.142,142.98,83.838,138.236,83.838,128.748z"/>
		<path fill="#F0EFF3" d="M98.52,127.44V99.706c0-2.333,0.174-4.475,0.521-6.423c0.348-1.949,0.934-3.789,1.758-5.521
			c0.824-1.73,1.867-3.192,3.13-4.385c1.262-1.192,2.872-2.135,4.829-2.827s4.199-1.039,6.723-1.039s4.766,0.346,6.723,1.039
			s3.566,1.635,4.83,2.827c1.262,1.192,2.305,2.654,3.129,4.385c0.824,1.731,1.41,3.571,1.758,5.521
			c0.348,1.948,0.521,4.09,0.521,6.423v27.734c0,13.488-5.654,20.232-16.961,20.232C104.173,147.672,98.52,140.928,98.52,127.44z
			 M126.568,128.748v-30.35c0-9.462-3.695-14.193-11.088-14.193s-11.087,4.731-11.087,14.193v30.35
			c0,9.488,3.695,14.232,11.087,14.232S126.568,138.236,126.568,128.748z"/>
		<path fill="#F0EFF3" d="M141.25,127.44V99.706c0-2.358,0.154-4.5,0.463-6.423c0.309-1.924,0.855-3.757,1.643-5.501
			c0.785-1.743,1.797-3.212,3.033-4.404s2.812-2.135,4.732-2.827c1.918-0.692,4.141-1.039,6.664-1.039
			c10.406,0,15.609,6.732,15.609,20.194v2.693h-5.604v-4.001c0-2.128-0.16-4.013-0.482-5.654c-0.322-1.641-0.855-3.121-1.604-4.442
			c-0.746-1.32-1.783-2.333-3.109-3.039c-1.328-0.705-2.93-1.058-4.811-1.058c-1.699,0-3.182,0.237-4.443,0.711
			c-1.262,0.475-2.285,1.123-3.07,1.943c-0.787,0.821-1.418,1.847-1.895,3.077s-0.805,2.52-0.984,3.865
			c-0.18,1.347-0.27,2.879-0.27,4.597v30.35c0,2.18,0.154,4.071,0.463,5.674s0.844,3.077,1.604,4.423
			c0.76,1.347,1.859,2.373,3.303,3.077c1.441,0.706,3.207,1.059,5.293,1.059c1.881,0,3.482-0.353,4.811-1.059
			c1.326-0.704,2.363-1.724,3.109-3.058c0.748-1.333,1.281-2.82,1.604-4.462c0.322-1.641,0.482-3.525,0.482-5.654v-4.539h5.604
			v3.231c0,2.333-0.143,4.462-0.426,6.385c-0.283,1.924-0.791,3.764-1.525,5.52c-0.734,1.757-1.682,3.231-2.84,4.424
			c-1.16,1.192-2.654,2.142-4.482,2.847s-3.939,1.058-6.336,1.058c-2.576,0-4.836-0.353-6.779-1.058
			c-1.945-0.705-3.529-1.654-4.754-2.847c-1.223-1.192-2.215-2.667-2.975-4.424c-0.76-1.756-1.287-3.59-1.584-5.5
			C141.398,131.934,141.25,129.799,141.25,127.44z"/>
	</g>
</g>
</svg>
